<?xml version="1.0" standalone="no"?>
<!DOCTYPE svg PUBLIC "-//W3C//DTD SVG 20010904//EN"
 "http://www.w3.org/TR/2001/REC-SVG-20010904/DTD/svg10.dtd">
<svg version="1.0" xmlns="http://www.w3.org/2000/svg"
 width="144.000000pt" height="144.000000pt" viewBox="0 0 144.000000 144.000000"
 preserveAspectRatio="xMidYMid meet">
<metadata>
Created by potrace 1.14, written by Peter Selinger 2001-2017
</metadata>
<g transform="translate(0.000000,144.000000) scale(0.100000,-0.100000)"
fill="#000000" stroke="none">
<path d="M476 1425 c-53 -19 -89 -46 -100 -77 -13 -37 -2 -55 48 -80 44 -21
56 -42 48 -81 -6 -31 -47 -37 -262 -37 l-209 0 0 -212 c1 -123 5 -221 11 -234
6 -12 24 -28 40 -35 42 -17 74 1 98 56 21 49 40 56 79 29 100 -70 68 -364 -40
-364 -21 0 -29 7 -38 32 -17 47 -40 68 -77 68 -23 0 -38 -7 -53 -26 -19 -24
-20 -40 -21 -244 l0 -219 207 0 c229 1 267 8 279 53 10 40 -3 71 -33 85 -64
29 -73 38 -62 70 27 77 187 108 300 60 56 -24 71 -39 75 -74 2 -21 -6 -30 -46
-50 -49 -25 -67 -56 -55 -96 14 -42 51 -49 275 -49 l210 0 0 218 c1 221 4 240
40 254 29 10 60 -11 81 -57 18 -38 25 -45 51 -45 41 0 83 45 102 110 36 122 1
263 -71 291 -39 15 -63 1 -83 -46 -19 -44 -45 -61 -78 -50 -36 11 -42 48 -42
266 l0 210 -182 -1 c-262 -2 -256 -2 -278 20 -35 35 -20 69 45 100 37 18 45
27 45 49 0 38 -23 65 -77 91 -59 27 -170 35 -227 15z"/>
</g>
</svg>
